<svg xmlns="http://www.w3.org/2000/svg" width="200" height="500" viewBox="0 0 200 500">
  <rect width="200" height="500" fill="#1a1a1a"/>
  <!-- Logo area -->
  <rect x="20" y="16" width="40" height="40" rx="8" fill="#242424" stroke="#b22222"/>
  <text x="72" y="42" font-family="Segoe UI, sans-serif" font-size="14" font-weight="bold" fill="#00bcd4">BigEd CC</text>
  <!-- Section: Fleet -->
  <text x="16" y="88" font-family="Segoe UI, sans-serif" font-size="11" font-weight="bold" fill="#888">FLEET</text>
  <rect x="8" y="96" width="184" height="30" rx="6" fill="#1e3a1e"/>
  <text x="20" y="116" font-family="Segoe UI, sans-serif" font-size="12" fill="#4caf50">Start Fleet</text>
  <rect x="8" y="132" width="184" height="30" rx="6" fill="#1a2a3a"/>
  <text x="20" y="152" font-family="Segoe UI, sans-serif" font-size="12" fill="#4fc3f7">Dashboard</text>
  <!-- Section: Consoles -->
  <text x="16" y="192" font-family="Segoe UI, sans-serif" font-size="11" font-weight="bold" fill="#888">CONSOLES</text>
  <rect x="8" y="200" width="184" height="30" rx="6" fill="transparent"/>
  <text x="20" y="220" font-family="Segoe UI, sans-serif" font-size="12" fill="#e2e2e2">Claude</text>
  <rect x="8" y="236" width="184" height="30" rx="6" fill="transparent"/>
  <text x="20" y="256" font-family="Segoe UI, sans-serif" font-size="12" fill="#e2e2e2">Gemini</text>
  <rect x="8" y="272" width="184" height="30" rx="6" fill="transparent"/>
  <text x="20" y="292" font-family="Segoe UI, sans-serif" font-size="12" fill="#e2e2e2">Local (Ollama)</text>
  <rect x="8" y="308" width="184" height="30" rx="6" fill="transparent"/>
  <text x="20" y="328" font-family="Segoe UI, sans-serif" font-size="12" fill="#e2e2e2">Fleet Comm</text>
  <!-- Section: Settings -->
  <text x="16" y="368" font-family="Segoe UI, sans-serif" font-size="11" font-weight="bold" fill="#888">SETTINGS</text>
  <rect x="8" y="376" width="184" height="30" rx="6" fill="transparent"/>
  <text x="20" y="396" font-family="Segoe UI, sans-serif" font-size="12" fill="#e2e2e2">Settings</text>
</svg>